<?xml version="1.0" encoding="UTF-8"?>
<svg id="Layer_1" data-name="Layer 1" xmlns="http://www.w3.org/2000/svg" viewBox="0 0 844.07 267.32">
  <defs>
    <style>
      .cls-1 {
        fill: #050606;
      }
    </style>
  </defs>
  <path class="cls-1" d="m819.04,158.79c-7.7,6.5-9.8,5.3-8.2-4.4,1.1-6.7,0-10.2-3.4-11.1-2.8-.7-8.1,1.8-9,4.2-.6,1.5-.8,1.6-2.4,0-2.9-2.5-5-1.9-8.2,2.5l-3,4.1-1-2.6c-1.3-3.5-4-3.4-4,.2,0,2.4-1,3.3-6.6,6.7-11.5,6.7-21.1,5.7-20.2-2.1.3-2.6.8-2.9,6.1-4,6.5-1.3,8.1-2.3,7.5-5-.3-1.5-1.4-2-5.9-2.2-6.4-.3-10.2,1.9-12.5,7.4-1.7,4.1-5.6,6.8-8.4,5.9-1.7-.5-2-1.5-2-5.6,0-6.8-1.3-8.9-5.3-8.9-3.7,0-6.8,2.4-9.4,7.3l-1.8,3.2-.3-3.3c-.2-1.9.6-8.8,1.7-15.5,5.1-30.1,6.7-50.8,4.2-55.5-1.4-2.7-4.2-2.8-6.5-.3-2.9,3.2-3.8,9.5-4.5,31.1l-.6,20.5-8.7.3-8.8.3v-5.5c0-3.1-.5-5.8-1.2-6.2-1.8-1.1-3.8,2.6-3.8,7.3v4.3h-4.5c-2.5,0-4.5.4-4.5,1,0,.5,1.5,1,3.4,1,5.2,0,5.9,1.6,5.1,12.2-.5,7.4-1.2,10.1-3.1,13.1-3.6,5.6-4.9,4.4-5.2-5-.2-5.5-.7-8.5-1.7-9.3-2.3-1.9-7.3-.2-10.3,3.6-3.3,4.1-4,4.2-4.4.7-.4-3.5-2.3-4-4.5-1.2-9.6,11.9-14.2,15.1-21,14.7-4.1-.3-5-.7-6.1-3.1-2.2-4.5-.8-6.4,5.1-7.2,6.5-.9,8.7-2,8.7-4.4s-1.9-3.1-7.1-3.1c-5.79,0-10.23,2.84-12.03,7.38-1.63-.42-4.92-.4-6.16-.4-.8,0-2.62-3.18-3.82-5.98-5.7-13.2-25.4-23.1-49.2-24.7-13.9-1-13.4-2.6,4.8-13.8,19.8-12.2,32.8-23.1,35.5-29.5,1.9-4.6.4-8-5-10.9-3.7-2.1-5.9-2.5-14.9-2.7-5.9-.2-12.8.1-15.6.6-7.2,1.3-17.1,4.7-24,8.4-7.4,3.9-16.8,12.6-16.3,15.2.6,3.4,3.6,2.1,6.1-2.6,3.3-6.3,12.1-12,25-16.1,8.8-2.9,11.6-3.3,20.7-3.4,8.6,0,11.2.4,14.4,2,7.7,3.9,7.4,8-1.5,16.7-5.9,5.8-35.1,25.8-37.6,25.8-.9,0-1.3-3.6-1.5-15.3-.3-14.4-.4-15.2-2.3-15.2s-2,.8-2.3,17.2l-.2,17.2-3.5,2.7c-4.4,3.3-4.5,5.2-.2,5.6l3.2.3.5,20c0,.38.02.74.03,1.1-.08.25-.15.52-.23.82-.86,3.46-61.32,18.28-72.34,16.65l-2.96-.57.3-7.7c.4-6.8.2-7.7-1.6-8.7-3.4-1.8-5.3-1.3-9.4,2.9-2.2,2.2-4.2,4-4.3,4s-.5-1.4-.8-3c-.9-4.5-3-3.6-6.8,2.7-2.3,3.9-4.6,6.5-7.2,7.8l-3.8,2-1.5-2c-1.2-1.5-1.4-3.5-1-8.1l.6-6-6.7-.1c-7.7-.1-11.2,1.3-14.5,5.8-1.6,2.2-2.9,2.9-4.8,2.7-2.1-.3-2.5-.8-2.4-3.6.2-2.5-.2-3.2-1.6-3.2-2.5,0-3.6,1.8-5.1,8.3-1.5,6.9-3.2,9.7-4.9,8.1-1.4-1.4-2.9-7.7-3-12.4,0-4.4-1.5-6.9-3-5.4-.11.11-.19.3-.26.56-5.64,1.19-34.68,10.75-37.22,11.99-7.5,3.66-13.42,3.75-19.92-4.75l-3.5-4.5,5.5-8.2c6.4-9.6,14.5-25,17.9-34.2,3.2-8.3,3.4-16.4.5-19-2.9-2.6-10.3-1.6-14,2-8.5,8.2-19,40.5-19,58.7v6.4l-6.6,3.9c-11.6,6.7-21.1,5.7-20.2-2.2.3-2.6.8-2.9,6.2-4,6.5-1.2,8-2.2,7.4-4.9-.3-1.5-1.4-2-5.9-2.2-4.8-.2-6.1.1-8.7,2.3-1.7,1.4-3.7,4.4-4.4,6.7-.8,2.3-2.6,5.1-4.1,6.1-4,3.1-5.7,1-5.7-6.9,0-3.4-.5-6.6-1-6.9-1.8-1.1-4,1.6-4,4.7,0,5.9-7.3,15.8-11.7,15.8-1.8,0-2.8-.9-4-3.8-3-7.1-2.8-11.1,1.1-21.6,4.9-12.9,7.7-26.9,7.9-39.1.2-12.6-1.1-16-6.3-16-3,0-3.7.5-5.3,3.6-3.6,7.5-4.9,18.3-5,42.1-.1,21.7-.2,22.7-2.2,23.7-1.1.6-4.5,2.4-7.5,4.1-9.6,5.2-17,3.5-17-3.7,0-3,.2-3.1,5.3-3.8,6.8-1,8.9-2.1,8.5-4.8-.3-1.9-1-2.2-5.9-2.5-4.8-.3-6.1.1-8.7,2.3-1.7,1.4-3.6,4.1-4.2,5.9-1.7,5.2-8.3,10.6-13,10.6-2.7,0-6.4-2.5-8.5-5.6-1.5-2.4-1.4-2.6,2.8-8.2,11.6-14.9,15.8-28.9,13.8-45.2-1.7-13.4-7.8-21-16.8-21-18,0-26.2,25.6-16.8,52.2,1.4,4,2.8,8.1,3.2,9,.5,1.6-.1,1.8-4.2,1.8-5,0-7.1,1.6-13.4,10-3.1,4.1-6.5,5.7-8.6,4-1.1-.9-1.5-3.2-1.5-8.1,0-6.7-1.1-9.2-3.2-7.1-.6.6-3.1.8-5.7.5-5.7-.6-10.5,2.3-13.7,8.2-1.2,2.2-4.4,8-7.2,12.8-2.7,4.8-9.6,18.7-15.2,30.8-5.7,12-10.7,21.9-11.3,21.9s-.7-2.7-.3-7.1c.3-3.9,1.1-13.4,1.6-21.2,1-13.1,4.7-49.3,6.9-68.2,1.2-9.9,3.9-34.1,4.6-41.5.3-3,.8-7.1,1-9,1.3-11.5,1.5-22.8.6-25.3-1.2-3.1-2.3-3.4-4.5-1.1-.9.8-2.1,2.4-2.7,3.5-2.7,5.2-11,30.6-20,61.7-9.6,33.5-13.3,44.2-15,44.2-1.3,0-2.6-6.3-3.8-18.5-2.4-23.2-3.2-29.2-4.8-36.5-1.9-9.2-3.7-13-6.3-13-5.7,0-11.5,20.5-19.1,68.5-1.3,7.7-2.6,14.4-3.1,15-1.2,1.3-1-45.7.3-76.2,1.2-28.3.9-33.3-2-33.3-1.1,0-2.1.6-2.4,1.4-.9,2.2-2.1,113.7-1.3,118.8.7,4.6,2.3,6.2,5,5.2,1.9-.7,3.2-5.8,6.1-22.9,5.7-33.5,11.5-62.8,13.4-67.8.6-1.5,1.4-2.7,1.9-2.7,1.5,0,5.2,22.3,7.2,42.5.6,6,1.3,13.7,1.6,17,.8,7.9,1.8,9.7,5.2,9.3,4.3-.5,8.9-11.5,19.2-46.3,9.9-33.5,17.2-56.4,19-59.2,1.2-2,.8,7.2-1,24.2-.6,4.9-2.4,21.1-4,36-7.4,67.2-10,101-8.2,107,.9,3.3,4.3,4.5,6.8,2.4,2.2-1.8,6-9.7,15.4-31.9,7-16.5,13.4-30.6,14.5-31.8.2-.2,1.3.6,2.4,1.7,3.4,3.4,7.8,2.8,12.2-1.9,4.3-4.5,4.9-4.8,4.9-2,0,5.4,11.5,5.1,15.2-.4.4-.6,1.1.1,1.7,1.6,1.2,3.1,3.9,4.8,7.6,4.8,2.8,0,11.8-4.1,14.6-6.6,1.5-1.4,2-1.2,5,1.4,4.7,4,7.2,5.2,11.2,5.2,3.3,0,7.7-2.5,10.4-6,1.1-1.3,1.4-1.2,2.8.8,2,2.8,6.6,5.2,9.9,5.2,3.8,0,12-3.4,16.8-6.9,2.3-1.7,4.5-3.1,4.9-3.1s1,1.5,1.3,3.4c2,10.6,13.2,12.5,18.8,3l2-3.4,2,2.5c2.6,3.3,6.7,3.3,10.7,0,2.9-2.5,3-2.6,4.1-.6,1.3,2.6,6.1,5.1,9.4,5.1,3.7,0,11.6-3.2,16.9-6.9l4.7-3.2v4.3c0,6.2,3.4,17.5,6.1,20.4,3.6,3.9,7.9,3,9.8-2,1.2-3.2,1.3-4.8.2-9.8-.6-3.2-1.5-6.6-1.8-7.6-.5-1.3-.1-1.2,2.1.6,4.6,3.5,8.38,1.79,14.78-1.39,2.68-1.33,32.48-11.93,38.46-14.7-.46,3.55,1.14,13.93,2.96,17.39,2.7,5.3,8.3,4.2,10.8-2,.9-2.3,1.6-4.8,1.6-5.5,0-1,1.1-1.4,3.5-1.3,3.4.1,3.5.2,3.5,3.8,0,4.7,2.1,6.9,6.7,6.9,2.9,0,4.4-.8,7.3-3.9l3.6-3.8,1.7,2.8c1.3,2.4,2.3,2.9,5.4,2.9,4.4,0,9.4-2.8,11.9-6.5,2.5-3.8,3.3-3.1,3.6,3.2.4,7.7,2.3,7.6,5.7-.2,6.2-14.3,9.8-16.8,8.6-6-.5,5.2-.3,7.1.9,9,2.82,4.29,73.37-9.15,79.72-15.49.41,14.81.64,15.49,2.38,15.49,1.9,0,2-.8,2.5-20l.5-20,7,.3c16.4.7,34,7.6,41.8,16.2,4.5,4.9,6.7,10.4,5.1,12-.5.4-4.5,1.5-8.9,2.5-27.8,6-59.7,21.1-71.1,33.7-15.4,17.1-8.2,36.1,14.2,37.6,23.1,1.5,50.3-16.6,64.8-42.9,4.8-8.7,7.6-17.2,7.6-22.9,0-2.43,4.95-4.65,7.33-5.83-.21.93-.33,1.9-.33,2.93,0,2.2,1,4.1,3.5,6.6,3.4,3.4,3.9,3.5,8.5,3,6.6-.8,12-3.7,16.8-9.2,2.2-2.5,4.2-4.5,4.6-4.5.3,0,.6,2.9.6,6.4,0,4.6.4,6.5,1.4,6.9,1.9.8,3-.7,5.6-7.5,2.1-5.8,5.4-10.8,7.1-10.8.5,0,.9,3.5.9,7.8,0,4.7.5,8.3,1.2,9,2,2,5.8,1.3,8.8-1.7l2.9-2.9,1.8,3.7c1.5,3.1,2.4,3.6,5.6,3.9,4.3.4,9.2-2.2,13.1-6.9,1.4-1.6,2.7-2.9,3-2.9s.6,2.3.6,5c0,3.7.4,5.2,1.6,5.7,2.2.8,3.9-1.4,5.9-7.7,2.2-7.1,6.4-14.5,7.6-13.3.5.5,1.3,3.3,1.9,6.2.5,3,1.5,6,2.1,6.8,1.5,1.7,5.7,1.6,8.9-.2,3.3-1.9,3.8-1.9,4.5.6.9,2.7,6.3,5.9,10,5.9,3.9-.1,13.2-3.9,17.8-7.4l3.7-2.8v3.3c.1,8.3,3.6,7.6,7.5-1.5,1.5-3.6,3.2-6.6,3.6-6.6s.9,2.1,1.1,4.7c.2,3.6.7,4.9,2,5.1,1.4.3,2.6-1.5,5.2-7.2,4.8-10.6,6.6-10.3,6.6.9,0,7.8.2,8.6,2.4,10,3.1,2.1,6.1.9,12.2-4.9,6.1-5.9,5.1-7.1-1.4-1.7Zm-61.2-10.3c3.1-1.9,4.3-2,3.8-.4-.3.7-1.8,1.4-3.4,1.6l-2.9.2,2.5-1.4Zm-117.6-.1c2.4-1.8,3.9-2,3.4-.3-.3.7-1.5,1.4-2.9,1.6q-2.3.2-.5-1.3Zm-332.4-.2c2.8-1.2,4.7-.6,3.2.9-.5.5-2,.8-3.3.6l-2.4-.5,2.5-1Zm-70,0c2.9-1.2,5-.5,2.6.9-.9.5-2.4.7-3.4.5-1.4-.3-1.2-.6.8-1.4Zm-89.2,14.7c-3.7,0-1.3-10.4,2.9-12.9,2.3-1.3,6-1.4,6.8-.1,1.5,2.4-6.4,13-9.7,13Zm35.5,1c-4.3,0-4.3-8.2-.1-12.8,2.8-2.9,4.1-2.8,8.3.9,1.9,1.7,3.5,3.7,3.5,4.5,0,1.9-8.7,7.4-11.7,7.4Zm17.8-13c-1.2,0-6.5-11.3-9.1-19-3-9.2-3.8-23.8-1.6-31.3,3.8-13,16-18.3,22.6-10,6.6,8.5,5.9,30.7-1.5,45.8-3.3,6.8-8.9,14.5-10.4,14.5Zm62.5-20c.3-7.4,1.1-19,1.9-25.7,1.9-16.4,4.1-20.6,6.6-12.2,2.3,7.4-2.3,36.7-7.5,47.9-1.5,3.4-1.6,3-1-10Zm71.8,9.1c1.1-12,8.2-36.5,12.8-43.9,4-6.6,7.8-9.2,10.4-7.4,3.2,2.2,2.3,10.3-2.7,22.3-3.1,7.6-15.3,28.8-18.9,32.9l-2.1,2.5.5-6.4Zm3.7,39.4c-1.9-1.9-4.1-13-4.1-20,.1-8.1,1.1-7.3,3.5,2.6,1.7,7.2,2.1,18.9.6,17.4Zm98.1-26.1c-1.5,3.4-7.2,9.6-8.7,9.6-2.1,0-2.8-3.6-1.5-7.5,1.9-5.8,9.2-9.9,10.7-5.9.3.8.1,2.6-.5,3.8Zm159.9,45.8c-17.2,18.6-40.6,28.1-54.3,22-10.4-4.6-11.2-18.2-1.8-30.1,10.3-13,31.7-24.5,60.5-32.5,9.6-2.7,13.5-3.4,14.8-2.8.4.2.7,2,.7,4-.1,9.5-9.5,28.2-19.9,39.4Zm112.8-39.8c-5.5,5-9.2,6.5-11.8,4.9-1.3-.8-1.7-3.4-1.9-14.1-.3-16.3-.2-16.4,10.7-16l7.6.3.3,10.1.3,10.2-5.2,4.6Zm11.1-54.9c1.1-19,1.6-21.9,3.2-20.9.7.5.9,4.1.4,11.8-.7,11.8-3.5,36.8-4.2,37.5s-.4-10.5.6-28.4Z"/>
</svg>