<?xml version="1.0" standalone="no"?>
<!DOCTYPE svg PUBLIC "-//W3C//DTD SVG 20010904//EN"
 "http://www.w3.org/TR/2001/REC-SVG-20010904/DTD/svg10.dtd">
<svg version="1.0" xmlns="http://www.w3.org/2000/svg"
 width="1804.000000pt" height="587.000000pt" viewBox="0 0 1804.000000 587.000000"
 preserveAspectRatio="xMidYMid meet">
<metadata>
Created by potrace 1.16, written by Peter Selinger 2001-2019
</metadata>
<g transform="translate(0.000000,587.000000) scale(0.100000,-0.100000)"
fill="#222" stroke="none">
<path d="M2165 4859 c-19 -17 -51 -64 -70 -103 -63 -132 -252 -717 -435 -1346
-170 -588 -263 -877 -302 -939 -7 -12 -19 -21 -26 -21 -33 0 -53 115 -107 600
-55 502 -94 720 -150 830 -35 69 -82 80 -128 32 -101 -106 -200 -490 -342
-1334 -105 -625 -110 -622 -108 77 0 281 7 683 14 895 8 212 14 507 14 656 0
253 -1 273 -19 293 -24 26 -48 27 -70 2 -15 -16 -18 -66 -27 -412 -6 -217 -11
-812 -12 -1324 -2 -912 -2 -931 18 -970 18 -37 23 -40 59 -40 34 0 43 5 58 31
26 45 57 192 133 624 152 872 248 1327 291 1385 15 19 16 19 29 2 40 -55 116
-548 170 -1115 14 -145 30 -284 36 -308 27 -107 122 -106 185 2 82 140 151
340 380 1099 187 619 346 1110 369 1141 29 39 15 -258 -30 -631 -47 -389 -186
-1719 -220 -2105 -43 -493 -58 -894 -35 -954 26 -69 94 -87 150 -39 42 35 139
235 336 693 168 391 297 677 314 694 7 7 15 7 24 1 59 -45 115 -75 138 -75 50
0 101 29 175 101 40 39 78 69 85 67 7 -3 15 -20 18 -38 15 -100 198 -108 308
-14 l41 34 27 -50 c47 -86 120 -114 220 -85 68 20 198 84 256 125 47 34 50 34
143 -42 87 -71 137 -92 215 -92 79 0 129 23 205 95 29 27 55 49 60 49 4 0 25
-20 47 -44 55 -64 136 -101 213 -100 94 3 240 64 385 163 41 28 80 51 86 51 7
0 18 -24 24 -52 28 -117 92 -200 165 -214 104 -19 184 21 254 129 l45 68 43
-45 c24 -25 55 -49 69 -52 43 -11 103 3 146 33 92 64 84 63 125 15 36 -44 103
-84 160 -97 77 -16 250 47 408 150 l100 64 7 -97 c10 -157 68 -355 123 -428
54 -70 133 -85 183 -34 68 68 76 170 29 363 -13 53 -20 97 -16 97 5 0 29 -15
54 -32 66 -47 130 -45 245 6 47 21 204 83 350 137 146 55 333 126 415 158
l150 58 7 -91 c13 -185 53 -311 110 -346 84 -53 172 21 213 177 8 31 21 60 27
65 20 12 113 9 126 -4 7 -7 12 -34 12 -60 0 -66 26 -125 62 -144 40 -21 126
-21 165 0 18 9 61 46 96 82 l64 67 36 -56 c41 -64 60 -72 146 -64 93 8 187 64
241 142 33 47 54 56 64 28 4 -9 11 -59 16 -111 15 -160 37 -153 135 45 84 168
122 231 148 239 32 10 37 -15 31 -151 -10 -200 4 -215 190 -201 444 32 1320
217 1529 323 27 13 52 22 55 18 4 -3 10 -70 13 -148 4 -78 10 -150 14 -160 9
-22 51 -22 60 1 8 18 21 295 31 645 l6 217 67 0 c301 -1 647 -99 867 -245 142
-95 264 -253 264 -342 0 -44 -14 -50 -254 -108 -616 -148 -1217 -433 -1486
-704 -158 -159 -216 -286 -208 -454 4 -75 9 -102 32 -146 160 -311 666 -345
1141 -75 402 228 759 670 879 1088 14 48 26 102 26 120 0 49 17 95 42 117 21
18 111 69 122 69 3 0 2 -15 -1 -34 -8 -52 14 -101 74 -166 66 -71 96 -82 191
-69 149 21 226 62 363 195 82 81 108 101 113 89 3 -9 6 -53 6 -98 1 -129 17
-186 53 -187 20 0 57 56 87 132 63 160 134 278 168 278 15 0 22 -37 22 -120 2
-128 16 -229 35 -250 22 -25 83 -27 128 -4 18 9 53 37 79 61 l46 46 36 -71
c20 -39 46 -76 58 -83 12 -6 49 -11 84 -11 91 -1 158 34 259 133 94 92 94 91
95 -36 0 -79 15 -119 48 -123 33 -5 67 39 102 132 17 44 42 111 56 148 28 74
97 188 114 188 15 0 38 -58 55 -143 31 -148 46 -167 129 -167 47 0 74 7 120
30 33 16 63 27 68 24 4 -3 17 -23 28 -45 26 -49 88 -95 157 -115 49 -14 61
-14 126 0 86 19 270 107 347 165 l55 42 7 -75 c8 -86 20 -116 47 -116 30 0 70
56 127 176 72 155 78 156 95 22 11 -87 20 -108 50 -108 25 0 60 50 112 162 54
117 82 158 107 158 25 0 31 -27 36 -190 3 -80 10 -158 16 -174 16 -41 82 -69
131 -55 41 11 109 59 180 128 120 115 104 136 -28 36 -105 -80 -150 -103 -173
-89 -25 16 -32 61 -22 134 22 154 8 254 -39 280 -59 31 -178 -8 -220 -73 l-24
-37 -40 30 c-71 52 -107 38 -189 -71 -28 -38 -52 -69 -54 -69 -2 0 -12 19 -22
43 -34 77 -76 86 -87 19 -4 -21 -10 -47 -15 -59 -11 -27 -109 -94 -203 -138
-214 -101 -362 -80 -375 53 -6 71 12 87 135 117 56 14 114 30 128 37 44 20 48
84 5 105 -31 15 -171 17 -223 2 -55 -15 -112 -71 -154 -151 -49 -94 -114 -141
-181 -130 -33 5 -43 33 -51 151 -5 59 -14 117 -22 128 -28 45 -96 55 -164 24
-51 -24 -84 -59 -133 -144 l-40 -68 -6 44 c-8 55 4 168 54 482 109 699 128
1058 58 1132 -44 47 -113 22 -153 -57 -44 -86 -59 -236 -75 -750 -6 -184 -14
-338 -18 -341 -4 -4 -91 -9 -194 -13 l-188 -6 -1 102 c-1 130 -7 153 -39 153
-38 0 -62 -58 -68 -166 l-5 -89 -88 0 c-54 0 -90 -4 -95 -11 -10 -17 16 -29
66 -29 109 -1 127 -41 112 -255 -7 -95 -19 -175 -32 -216 -23 -75 -83 -162
-108 -157 -23 4 -41 61 -42 128 -1 95 -19 222 -35 246 -13 20 -24 24 -62 24
-60 0 -116 -33 -181 -106 -57 -65 -76 -66 -87 -6 -15 91 -48 92 -120 4 -95
-117 -218 -232 -280 -262 -72 -36 -152 -46 -220 -28 -42 11 -53 19 -72 53 -27
48 -30 106 -6 127 23 20 69 34 160 48 90 15 137 43 141 87 5 51 -29 67 -142
66 -127 -1 -210 -40 -252 -118 l-19 -35 -72 0 c-70 0 -73 1 -96 33 -14 17 -44
70 -67 117 -94 188 -303 343 -587 436 -137 45 -265 70 -457 90 -191 19 -240
32 -244 61 -4 28 68 89 215 183 416 263 600 396 749 545 120 118 160 187 152
260 -7 57 -41 101 -109 142 -93 56 -155 66 -414 66 -259 0 -308 -7 -510 -74
-168 -55 -342 -143 -450 -227 -150 -115 -218 -201 -196 -248 6 -13 17 -24 24
-24 25 0 65 39 101 98 39 63 117 143 186 189 113 76 335 166 525 214 102 26
398 38 500 20 82 -15 173 -59 210 -103 23 -28 27 -39 23 -80 -12 -124 -205
-296 -688 -617 -228 -151 -287 -183 -300 -161 -13 21 -19 101 -26 350 -7 268
-13 310 -48 310 -13 0 -27 -8 -31 -17 -8 -19 -23 -409 -24 -620 l-1 -121 -65
-52 c-71 -55 -96 -93 -77 -112 6 -6 37 -15 68 -19 31 -4 57 -9 59 -11 2 -2 7
-108 11 -236 7 -213 6 -234 -10 -251 -81 -89 -1240 -363 -1526 -360 -133 1
-126 -10 -121 166 2 83 0 160 -4 172 -14 44 -105 68 -156 40 -13 -6 -59 -46
-101 -87 l-77 -74 -6 28 c-32 140 -57 138 -158 -13 -35 -54 -80 -112 -98 -129
-38 -35 -121 -84 -141 -84 -7 0 -24 17 -38 37 -22 32 -25 47 -24 122 0 47 4
110 8 140 l7 54 -148 -5 c-187 -6 -227 -20 -311 -115 -44 -49 -65 -65 -92 -69
-54 -8 -74 12 -80 83 -5 55 -7 58 -33 61 -43 5 -65 -22 -93 -117 -13 -47 -34
-116 -45 -152 -31 -107 -72 -125 -104 -46 -22 55 -45 176 -45 238 0 83 -34
140 -65 110 -6 -5 -59 -24 -120 -41 -173 -50 -620 -198 -730 -242 -199 -81
-293 -48 -453 160 l-41 53 103 157 c120 183 211 342 306 537 125 259 167 400
158 539 -8 117 -44 152 -158 150 -145 -1 -223 -71 -335 -299 -153 -312 -261
-730 -272 -1057 l-6 -156 -108 -62 c-185 -106 -314 -140 -402 -106 -52 20 -77
58 -77 118 0 71 12 79 172 113 113 24 154 66 114 120 -11 15 -30 20 -104 23
-50 2 -107 2 -125 -2 -58 -11 -122 -77 -169 -174 -49 -103 -72 -137 -114 -163
-78 -48 -101 -13 -114 173 -5 72 -13 135 -18 140 -14 14 -50 0 -67 -25 -8 -12
-19 -53 -25 -91 -18 -115 -99 -247 -188 -306 -57 -38 -86 -38 -121 -1 -45 48
-76 152 -76 256 1 84 5 102 68 285 128 375 162 560 162 880 0 202 -2 229 -19
264 -23 47 -72 70 -129 63 -64 -9 -96 -51 -135 -179 -50 -162 -62 -293 -71
-828 -6 -361 -10 -461 -22 -485 -11 -23 -42 -45 -129 -93 -183 -99 -281 -122
-366 -83 -49 22 -74 68 -74 135 0 56 6 60 131 81 52 9 110 24 129 34 31 16 35
23 35 57 0 53 -25 64 -146 64 -89 0 -98 -2 -140 -30 -51 -33 -95 -90 -131
-171 -48 -106 -182 -209 -273 -209 -58 0 -141 52 -182 114 -18 26 -33 52 -33
56 0 8 51 85 144 215 118 165 198 344 238 530 19 91 16 360 -5 465 -34 163
-119 298 -221 353 -34 18 -58 22 -141 22 -90 0 -106 -3 -158 -29 -206 -100
-321 -400 -288 -744 15 -153 29 -213 98 -419 31 -95 54 -175 50 -179 -4 -4
-44 -10 -89 -14 -46 -4 -96 -14 -113 -22 -36 -20 -92 -78 -168 -175 -62 -79
-100 -110 -145 -119 -69 -14 -88 24 -95 198 -3 64 -10 125 -16 137 -13 23 -40
28 -58 10 -7 -7 -56 -12 -120 -13 -99 -1 -112 -4 -162 -31 -29 -16 -67 -46
-85 -66 -49 -58 -252 -428 -387 -704 -260 -535 -387 -791 -402 -810 -15 -20
-15 -20 -22 5 -14 58 84 1165 176 1975 21 193 53 469 69 615 16 146 41 371 56
500 17 154 28 312 31 460 4 214 3 227 -16 258 -26 40 -41 40 -86 1z m13403
-884 c11 -128 -73 -982 -99 -1010 -23 -23 12 799 42 995 17 108 48 117 57 15z
m-11379 -25 c124 -63 189 -255 178 -525 -12 -296 -107 -566 -275 -785 -85
-111 -87 -110 -171 62 -131 267 -174 441 -174 708 -1 226 37 351 140 461 86
92 212 125 302 79z m3285 -16 c40 -15 59 -96 45 -189 -30 -196 -151 -462 -382
-839 -78 -129 -166 -250 -175 -242 -2 3 1 53 8 113 29 275 147 704 255 929 45
92 116 182 170 216 31 19 53 22 79 12z m-1910 -69 c52 -130 2 -596 -100 -934
-34 -110 -68 -191 -81 -191 -7 0 3 316 17 515 21 296 61 572 92 640 19 42 49
29 72 -30z m9773 -949 c1 -1 5 -103 8 -226 l6 -225 -99 -84 c-112 -95 -171
-130 -223 -131 -77 -1 -86 26 -95 305 -9 272 9 353 80 369 20 4 318 -2 323 -8z
m-6122 -313 c29 -29 14 -92 -38 -165 -50 -71 -129 -148 -151 -148 -25 0 -46
42 -46 90 0 133 167 292 235 223z m-6191 -13 c34 -13 33 -33 -5 -110 -37 -72
-133 -176 -174 -186 -110 -27 -38 251 75 292 44 16 71 17 104 4z m717 -18 c56
-37 129 -116 129 -141 0 -42 -189 -161 -255 -161 -92 0 -97 166 -9 269 32 36
61 58 85 60 3 1 25 -12 50 -27z m3279 -185 c12 -45 29 -120 36 -167 16 -95 19
-286 5 -294 -32 -20 -101 287 -101 450 0 136 25 141 60 11z m6161 36 c25 -66
-23 -262 -109 -443 -104 -218 -239 -407 -409 -571 -150 -143 -272 -231 -438
-314 -332 -165 -619 -173 -771 -21 -117 117 -118 317 -2 514 18 32 85 109 148
173 171 172 379 303 689 434 255 108 729 253 834 254 43 1 49 -2 58 -26z"/>
</g>
</svg>
